<svg xmlns="http://www.w3.org/2000/svg" xmlns:xlink="http://www.w3.org/1999/xlink" width="95.704" height="124" viewBox="0 0 95.704 124">
  <defs>
    <clipPath id="clip-path">
      <rect id="Rectangle_5" data-name="Rectangle 5" width="95.704" height="92.422" transform="translate(0 0)" fill="none"/>
    </clipPath>
  </defs>
  <g id="Group_11" data-name="Group 11" transform="translate(-988.38 -505)">
    <g id="Group_10" data-name="Group 10" transform="translate(988.38 505)">
      <g id="Group_9" data-name="Group 9" clip-path="url(#clip-path)">
        <path id="Path_15" data-name="Path 15" d="M35.549,50.229c.352,2.435.684,4.718,1.014,7a2.182,2.182,0,0,1-1.575,2.592c-1.168.276-1.252,1.064-1.633,0l-1.076-2.07,1.076,2.1C33.274,59.308,32,58.584,32,58.584s-1.291-5.494-1.56-7.312L19.19,50.266a99.373,99.373,0,0,0-.483,18.016,109.188,109.188,0,0,0,3.43,20.537,4.317,4.317,0,0,0,4.589,3.558c5,.008,10-.1,15,.042,3.182.094,4.43-2.2,4.171-4.54-.416-3.773-.742-7.556-1.144-11.331a9.928,9.928,0,0,1,1.443-7.112,2.05,2.05,0,0,1,3.325-.029,8.28,8.28,0,0,1,1.558,5.306c-.087,1.6-.254,3.186-.4,4.777-.277,2.985-.637,5.964-.828,8.953a3.455,3.455,0,0,0,3.768,3.933q7.8.017,15.6,0A4.3,4.3,0,0,0,73.5,89.2c.157-.494.249-1.008.371-1.513A108.815,108.815,0,0,0,77.132,66.4a2.058,2.058,0,0,0-.846-1.687,1.3,1.3,0,0,1-.159-.321l1.184.641c-.2-5.1-.389-9.913-.583-14.862h-8.14c-2.6,0-2.59,0-2.939,2.608-.233,1.742-.477,3.485-.794,5.212a2.208,2.208,0,0,1-2.64,1.856,1.969,1.969,0,0,1-1.8-2.433c.206-1.727.494-3.444.735-5.168.091-.653.149-1.31.229-2.019Z" fill="#e26a89"/>
        <path id="Path_16" data-name="Path 16" d="M34.908,45.751a7.68,7.68,0,0,0,.771.1q12.658.01,25.319.024c.749,0,1.071-.266,1.154-1,.4-3.653.918-7.3,1.241-10.955.593-6.728,1.156-13.461,1.581-20.2.258-4.108.246-8.233.315-12.351,0-.313-.264-.865-.482-.907C63.664.232,62.494.141,61.353.007c.64,2.144,1.369,4.1,1.794,6.112,1.068,5.051-1.759,8.67-6.921,8.785a57.226,57.226,0,0,1-6.063-.573,13.983,13.983,0,0,0-2.315.013,52.7,52.7,0,0,1-6.3.535c-4.827-.192-7.541-3.564-6.75-8.311.366-2.182,1.1-4.3,1.694-6.568-1.135.1-2.348.279-3.567.307-1.149.026-1.513.4-1.492,1.637.177,9.922.828,19.811,1.861,29.677.491,4.686,1.066,9.363,1.613,14.13" fill="#e26a89"/>
        <path id="Path_17" data-name="Path 17" d="M27.436.73a49.358,49.358,0,0,0-5.343,2.23C15.488,6.689,8.931,10.505,2.385,14.337A4.273,4.273,0,0,0,.476,20.188C1.842,23.381,3.265,26.55,4.721,29.7c1.182,2.562,3.407,3.2,5.836,1.722C14,29.326,17.433,27.2,20.87,25.093c.425-.262.845-.533,1.442-.909-.979,7.331-1.925,14.416-2.883,21.588H30.357A309.863,309.863,0,0,1,27.436.73" fill="#005bb5"/>
        <path id="Path_18" data-name="Path 18" d="M73.425,24.244c.471.267.81.445,1.136.646,3.537,2.176,7.064,4.371,10.611,6.531,2.438,1.484,4.657.841,5.839-1.713q2.086-4.51,4.061-9.072c1.3-3.018.612-4.973-2.225-6.62-6.6-3.827-13.18-7.673-19.795-11.465A39.309,39.309,0,0,0,69.31.9a295.536,295.536,0,0,1-2.69,44.851h9.688C75.343,38.558,74.4,31.5,73.425,24.244" fill="#e26a89"/>
        <path id="Path_19" data-name="Path 19" d="M45.419,10.509a19.025,19.025,0,0,1-5.759-7.22A19.137,19.137,0,0,0,38.9,8.084a2.909,2.909,0,0,0,1.233,2.111c1.567.921,3.339.658,5.285.314" fill="#005bb5"/>
        <path id="Path_20" data-name="Path 20" d="M53.162,10.6a23.545,23.545,0,0,0,3.779-.041c1.628-.257,2.266-1.122,2.178-2.778-.075-1.395-.389-2.776-.569-3.982l-5.388,6.8" fill="#e26a89"/>
        <path id="Path_21" data-name="Path 21" d="M48.361,68.254V50.213H35.239l.878,8.686a2.8,2.8,0,0,1-1.827,1.024c-1,0-2.011-1.571-2.011-1.571l-1.507-8.14H19.189a64.685,64.685,0,0,0-.912,18.041c.891,10.079.862,16.6,4.283,22.273,1.057,1.753,2.78,1.476,3.927,1.918,1.6.664,2.991,0,6.387,0H44.32a8.427,8.427,0,0,0,1.6-1.918c.78-1.248.7.594.7-4.083s-1.374-14.626-1.374-14.626a4.024,4.024,0,0,1,.874-2.083A6.946,6.946,0,0,1,48.361,68.254Z" fill="#005bb5"/>
        <path id="Path_22" data-name="Path 22" d="M47.895,14.362l-.6,31.313H35.058s-.552-3.807-1.125-8.959c-.449-4.037-.893-9.131-1.412-14.511C31.423,10.833,30.354,6.2,31.437.612s5.417-.741,5.417-.741-1.8,4.928-1.8,7.961a9.093,9.093,0,0,0,1.122,4.726s1.017,1.409,3.95,1.8A46.874,46.874,0,0,0,47.895,14.362Z" fill="#005bb5"/>
      </g>
    </g>
    <text id="Kids_Store" data-name="Kids Store" transform="translate(989 624)" fill="#005bb5" font-size="20" font-family="SegoeUI-Bold, Segoe UI" font-weight="700"><tspan x="0" y="0">Kids</tspan><tspan y="0" fill="#707070"> </tspan><tspan y="0" fill="#e26a89">Store</tspan></text>
  </g>
</svg>
