<svg xmlns="http://www.w3.org/2000/svg" width="171.092" height="421.555" viewBox="0 0 171.092 421.555">
  <g id="Group_3" data-name="Group 3" transform="translate(-933 -262)">
    <g id="Group_2" data-name="Group 2">
      <g id="Group_1" data-name="Group 1" transform="translate(933.02 261.995)">
        <g id="Path_5" data-name="Path 5" transform="translate(4.18 0.005)" fill="#005bb5">
          <path d="M 79.46664428710938 210.277587890625 C 74.119140625 210.277587890625 68.77487945556641 209.5630798339844 63.58230209350586 208.1539001464844 C 58.51969528198242 206.780029296875 53.53924942016602 204.7295837402344 48.77925109863281 202.0595245361328 C 44.1024055480957 199.4361114501953 39.59080123901367 196.1883392333984 35.3697509765625 192.4064483642578 C 31.1859073638916 188.6578674316406 27.25106620788574 184.3521575927734 23.67448616027832 179.6089019775391 C 20.09596061706543 174.8630523681641 16.84677505493164 169.6403198242188 14.01719665527344 164.0857086181641 C 11.15938091278076 158.4757385253906 8.704670906066895 152.4779205322266 6.721249580383301 146.2589569091797 C 4.700670719146729 139.9234313964844 3.148775815963745 133.2930603027344 2.108644247055054 126.5520553588867 C 1.041223287582397 119.6341857910156 0.5000126957893372 112.5138473510742 0.5000126957893372 105.3887939453125 C 0.5000126957893372 98.26374053955078 1.041223287582397 91.14340209960938 2.108644247055054 84.22553253173828 C 3.148775815963745 77.48452758789062 4.700670719146729 70.85418701171875 6.721249580383301 64.51866149902344 C 8.704670906066895 58.29966354370117 11.15938091278076 52.30187225341797 14.01719665527344 46.69187164306641 C 16.84677505493164 41.13729476928711 20.09596061706543 35.91453170776367 23.67448616027832 31.16868782043457 C 27.25106620788574 26.42542457580566 31.1859073638916 22.11971473693848 35.3697509765625 18.37116241455078 C 39.59080123901367 14.58924102783203 44.1024055480957 11.34147834777832 48.77925109863281 8.718056678771973 C 53.53924942016602 6.048004627227783 58.51969528198242 3.997557163238525 63.58230209350586 2.623688697814941 C 68.77487945556641 1.214504480361938 74.119140625 0.5000044703483582 79.46664428710938 0.5000044703483582 C 84.81414794921875 0.5000044703483582 90.15840911865234 1.214504480361938 95.35098266601562 2.623688697814941 C 100.4135894775391 3.997557163238525 105.3940353393555 6.048004627227783 110.1540374755859 8.718056678771973 C 114.8308792114258 11.34147834777832 119.3425140380859 14.58924102783203 123.5635375976562 18.37116241455078 C 127.7473831176758 22.11971473693848 131.6822509765625 26.42542457580566 135.2588348388672 31.16868782043457 C 138.8373260498047 35.91453170776367 142.0865173339844 41.13729476928711 144.9161224365234 46.69187164306641 C 147.7739410400391 52.30187225341797 150.2286376953125 58.29966354370117 152.2120666503906 64.51866149902344 C 154.2326507568359 70.85418701171875 155.7845458984375 77.48452758789062 156.8246765136719 84.22553253173828 C 157.89208984375 91.14340209960938 158.4333038330078 98.26374053955078 158.4333038330078 105.3887939453125 C 158.4333038330078 112.5138473510742 157.89208984375 119.6341857910156 156.8246765136719 126.5520553588867 C 155.7845458984375 133.2930603027344 154.2326507568359 139.9234313964844 152.2120666503906 146.2589569091797 C 150.2286376953125 152.4779205322266 147.7739410400391 158.4757385253906 144.9161224365234 164.0857086181641 C 142.0865173339844 169.6403198242188 138.8373260498047 174.8630523681641 135.2588348388672 179.6089019775391 C 131.6822509765625 184.3521575927734 127.7473831176758 188.6578674316406 123.5635375976562 192.4064483642578 C 119.3425140380859 196.1883392333984 114.8308792114258 199.4361114501953 110.1540374755859 202.0595245361328 C 105.3940353393555 204.7295837402344 100.4135894775391 206.780029296875 95.35098266601562 208.1539001464844 C 90.15840911865234 209.5630798339844 84.81414794921875 210.277587890625 79.46664428710938 210.277587890625 Z" stroke="none"/>
          <path d="M 79.46664428710938 0.9999847412109375 C 74.16336822509766 0.9999847412109375 68.86317443847656 1.708633422851562 63.7132568359375 3.106216430664062 C 58.69025421142578 4.469345092773438 53.74803161621094 6.504150390625 49.02386474609375 9.154129028320312 C 44.37886810302734 11.75965881347656 39.89722442626953 14.98602294921875 35.70339202880859 18.74354553222656 C 31.54361724853516 22.47055053710938 27.63081359863281 26.75224304199219 24.07369995117188 31.46971130371094 C 20.5126953125 36.19232177734375 17.27908325195312 41.39015197753906 14.46269226074219 46.9188232421875 C 11.61714172363281 52.5047607421875 9.172805786132812 58.477294921875 7.197616577148438 64.67057800292969 C 5.184890747070312 70.98146057128906 3.638946533203125 77.58634948730469 2.602783203125 84.30176544189453 C 1.539260864257812 91.19448852539062 1 98.2891845703125 1 105.3887939453125 C 1 112.4884033203125 1.539260864257812 119.5830993652344 2.602783203125 126.4758224487305 C 3.638946533203125 133.1912384033203 5.184890747070312 139.7961273193359 7.197616577148438 146.1070251464844 C 9.172805786132812 152.3002624511719 11.61714172363281 158.2728271484375 14.46269226074219 163.8587341308594 C 17.27908325195312 169.3874359130859 20.5126953125 174.5852355957031 24.07369995117188 179.3078460693359 C 27.63081359863281 184.0253295898438 31.54361724853516 188.3070220947266 35.70339202880859 192.0340423583984 C 39.89722442626953 195.7915649414062 44.37886810302734 199.0178985595703 49.02386474609375 201.6234283447266 C 53.74803161621094 204.2734069824219 58.69025421142578 206.3082122802734 63.7132568359375 207.6713562011719 C 68.86317443847656 209.0689392089844 74.16336822509766 209.7775726318359 79.46664428710938 209.7775726318359 C 84.76992034912109 209.7775726318359 90.07011413574219 209.0689392089844 95.22003173828125 207.6713562011719 C 100.243034362793 206.3082122802734 105.1852569580078 204.2734069824219 109.909423828125 201.6234283447266 C 114.5544204711914 199.0178985595703 119.0360565185547 195.7915649414062 123.2298889160156 192.0340423583984 C 127.3896713256836 188.3070220947266 131.3024749755859 184.0253295898438 134.8595886230469 179.3078460693359 C 138.4205932617188 174.5852355957031 141.6542053222656 169.3874359130859 144.4705810546875 163.8587341308594 C 147.3161468505859 158.2728271484375 149.7604827880859 152.3002624511719 151.7356719970703 146.1070251464844 C 153.7483978271484 139.7961273193359 155.2943420410156 133.1912384033203 156.3305053710938 126.4758224487305 C 157.3940277099609 119.5830993652344 157.9332885742188 112.4884033203125 157.9332885742188 105.3887939453125 C 157.9332885742188 98.2891845703125 157.3940277099609 91.19448852539062 156.3305053710938 84.30176544189453 C 155.2943420410156 77.58634948730469 153.7483978271484 70.98146057128906 151.7356719970703 64.67057800292969 C 149.7604827880859 58.477294921875 147.3161468505859 52.5047607421875 144.4705810546875 46.9188232421875 C 141.6542053222656 41.39015197753906 138.4205932617188 36.19232177734375 134.8595886230469 31.46971130371094 C 131.3024749755859 26.75224304199219 127.3896713256836 22.47055053710938 123.2298889160156 18.74354553222656 C 119.0360565185547 14.98602294921875 114.5544204711914 11.75965881347656 109.909423828125 9.154129028320312 C 105.1852569580078 6.504150390625 100.243034362793 4.469345092773438 95.22003173828125 3.106216430664062 C 90.07011413574219 1.708633422851562 84.76992034912109 0.9999847412109375 79.46664428710938 0.9999847412109375 M 79.46664428710938 -1.52587890625e-05 C 123.354866027832 -1.52587890625e-05 158.9332885742188 47.18418884277344 158.9332885742188 105.3887939453125 C 158.9332885742188 163.5934143066406 123.354866027832 210.7775726318359 79.46664428710938 210.7775726318359 C 35.57842254638672 210.7775726318359 0 163.5934143066406 0 105.3887939453125 C 0 47.18418884277344 35.57842254638672 -1.52587890625e-05 79.46664428710938 -1.52587890625e-05 Z" stroke="none" fill="#707070"/>
        </g>
        <path id="Path_1" data-name="Path 1" d="M792.86,425.63c-8.79-14-10.83-29.42-6.8-45.05,3.67-14.27,9.25-28,13.87-42.07,3.58-10.86,6.06-21.89,4.54-33.5-1.2-9.17-5.21-17.18-9.49-25.19-5.47-10.24-10.85-20.56-15.78-31.07-1.5-3.22-1.69-7.17-2-10.83-.7-8.8,3.14-15.33,10.6-19.87,1.11-.68,2.15-1.48,2.79-1.93-7.82-3.11-16-5.48-23.33-9.46-20.68-11.23-34.19-29-42.3-50.68-13.11-35-11.74-69.68,5.24-103.16,10.66-21,26.38-37.12,49.25-44.71C806.39-.82,830.68,5.33,851.27,24c28.27,25.59,37.91,58.8,35.67,95.93-1.41,23.24-8.9,44.52-23.16,63.13-11.5,15-26,25.8-44.49,30.73-.66.17-1.32.37-2,.58-.11,0-.18.19-.66.73l2.11,15.8c.2,1.49.39,3,.53,4.49.34,3.62-1.52,5.54-5,5.61-7.13.14-14.27.19-21.4,0-4-.11-5.49-2.3-4.91-6.39.43-3,1.05-5.88,1.72-9.61-5.76,4.34-6.82,9.81-5.59,15.38a73.681,73.681,0,0,0,5.91,16.5c4.17,8.47,9,16.61,13.67,24.83,9.06,16,10.32,32.86,5.17,50.09-4.07,13.63-9.42,26.87-13.82,40.4-4.19,12.86-5.77,26-1.38,39.17a47.714,47.714,0,0,0,3.21,7.54,5.39,5.39,0,0,1-.68,6.72ZM878.45,110c-.66-27.43-8.23-52.26-26.69-73.27-27.25-31-72.43-31-99.66,0-18.84,21.48-26.85,46.85-26.54,74.9.3,26.86,8.2,51.3,26.44,71.63,11.94,13.31,26.64,21.92,44.78,23.33,22.45,1.76,40.63-7.27,55.31-23.64C870.63,162.27,877.85,137.3,878.45,110ZM809.62,231.76c-.45-3.73-.81-6.95-1.24-10.16-.17-1.33-.51-2.64-.78-4-8.9,2.56-9,2.71-9.45,14.14Z" transform="translate(-716.18 -4.07)" fill="#005bb5"/>
        <path id="Path_2" data-name="Path 2" d="M789,33.69l-.1-.49c-3.19.69-6.49,1-9.55,2.11-14,4.86-32,29.6-32.12,44.45,0,1.53,1.79,3.81,3.28,4.38,1.2.47,3.44-.82,4.76-1.9.91-.74.92-2.51,1.51-3.73,3.91-7.94,7.28-16.23,12-23.69S780.4,42.51,789.9,42.71c4.59.09,7.15-1.56,6.9-4.54-.35-4.31-3.59-4.59-6.94-4.48C789.51,33.7,789.24,33.69,789,33.69Z" transform="translate(-716.18 -4.07)" fill="#fff"/>
        <path id="Path_3" data-name="Path 3" d="M809.62,231.76H798.15c.45-11.43.55-11.58,9.45-14.14.27,1.34.61,2.65.78,4C808.81,224.81,809.17,228,809.62,231.76Z" transform="translate(-716.18 -4.07)" fill="#fff"/>
        <path id="Path_4" data-name="Path 4" d="M789,33.69h.82c3.35-.11,6.59.17,6.94,4.48.25,3-2.31,4.63-6.9,4.54-9.5-.2-16.45,4.66-21.12,12.11s-8.05,15.75-12,23.69c-.59,1.22-.6,3-1.51,3.73-1.32,1.08-3.56,2.37-4.76,1.9-1.49-.57-3.3-2.85-3.28-4.38.15-14.85,18.11-39.59,32.12-44.45,3.06-1.06,6.36-1.42,9.55-2.11Z" transform="translate(-716.18 -4.07)" fill="#fff"/>
      </g>
    </g>
  </g>
</svg>
